<svg xmlns="http://www.w3.org/2000/svg" version="1.1" xmlns:xlink="http://www.w3.org/1999/xlink" width="1000" height="1000"><g clip-path="url(#SvgjsClipPath1003)"><rect width="1000" height="1000" fill="#ffffff"></rect><g transform="matrix(3.5,0,0,3.5,150,150)"><svg xmlns="http://www.w3.org/2000/svg" version="1.1" xmlns:xlink="http://www.w3.org/1999/xlink" width="200" height="200"><svg xmlns="http://www.w3.org/2000/svg" version="1.1" xmlns:xlink="http://www.w3.org/1999/xlink" viewBox="0 0 200 200"><rect width="200" height="200" fill="url('#gradient')"></rect><defs><linearGradient id="gradient" gradientTransform="rotate(45 0.5 0.5)"><stop offset="0%" stop-color="#110b11"></stop><stop offset="100%" stop-color="#110b11"></stop></linearGradient><clipPath id="SvgjsClipPath1003"><rect width="1000" height="1000" x="0" y="0" rx="350" ry="350"></rect></clipPath></defs><g><g fill="#e36588" transform="matrix(8.69433962264151,0,0,8.69433962264151,-4.073897166971889,161.77765449667876)" stroke="#0e5278" stroke-width="0"><path d="M8.16-14.22L8.16 0L4.86 0L4.86-10.51L1.62-9.56L1.62-12.06L7.86-14.22L8.16-14.22ZM22.32-8.40L22.32-5.81Q22.32-2.93 21.03-1.37Q19.74 0.20 17.38 0.20L17.38 0.20Q15.01 0.20 13.71-1.38Q12.41-2.95 12.41-5.81L12.41-5.81L12.41-8.41Q12.41-11.29 13.71-12.85Q15-14.41 17.36-14.41Q19.73-14.41 21.03-12.84Q22.32-11.27 22.32-8.40L22.32-8.40ZM19.03-5.31L19.03-8.83Q19.03-10.36 18.63-11.12Q18.23-11.88 17.36-11.88L17.36-11.88Q16.51-11.88 16.13-11.17Q15.74-10.47 15.71-9.04L15.71-9.04L15.71-5.41Q15.71-3.82 16.11-3.08Q16.51-2.34 17.38-2.34L17.38-2.34Q18.22-2.34 18.62-3.06Q19.02-3.78 19.03-5.31L19.03-5.31Z"></path></g></g></svg></svg></g></g></svg>